<svg xmlns="http://www.w3.org/2000/svg" xmlns:xlink="http://www.w3.org/1999/xlink" width="500" zoomAndPan="magnify" viewBox="0 0 375 374.999991" height="500" preserveAspectRatio="xMidYMid meet" version="1.0"><defs><g/><clipPath id="4965e646ef"><path d="M 220 117.449219 L 242 117.449219 L 242 165 L 220 165 Z M 220 117.449219 " clip-rule="nonzero"/></clipPath><clipPath id="f45ac15fd1"><path d="M 133 117.449219 L 155 117.449219 L 155 165 L 133 165 Z M 133 117.449219 " clip-rule="nonzero"/></clipPath><clipPath id="d35718845a"><path d="M 123.125 135 L 133 135 L 133 157 L 123.125 157 Z M 123.125 135 " clip-rule="nonzero"/></clipPath><clipPath id="ab64a39163"><path d="M 176 177 L 177 177 L 177 178.949219 L 176 178.949219 Z M 176 177 " clip-rule="nonzero"/></clipPath><clipPath id="cac31bd6f0"><path d="M 180 117.449219 L 191 117.449219 L 191 147 L 180 147 Z M 180 117.449219 " clip-rule="nonzero"/></clipPath></defs><rect x="-37.5" width="450" fill="#ffffff" y="-37.499999" height="449.999989" fill-opacity="1"/><rect x="-37.5" width="450" fill="#ffffff" y="-37.499999" height="449.999989" fill-opacity="1"/><rect x="-37.5" width="450" fill="#ffffff" y="-37.499999" height="449.999989" fill-opacity="1"/><g clip-path="url(#4965e646ef)"><path fill="#004aad" d="M 226.75 164.828125 L 222.535156 163.636719 C 221.09375 163.226562 220.253906 161.734375 220.667969 160.296875 L 232.257812 119.953125 C 232.667969 118.519531 234.175781 117.6875 235.617188 118.097656 L 239.832031 119.292969 C 241.273438 119.699219 242.113281 121.195312 241.699219 122.628906 L 230.105469 162.976562 C 229.695312 164.410156 228.191406 165.242188 226.75 164.828125 Z M 226.75 164.828125 " fill-opacity="1" fill-rule="nonzero"/></g><path fill="#004aad" d="M 236.65625 161.546875 L 234.351562 160.894531 C 233.027344 160.519531 232.257812 159.144531 232.636719 157.828125 L 241.113281 128.328125 C 241.492188 127.011719 242.871094 126.246094 244.199219 126.621094 L 246.503906 127.277344 C 247.828125 127.652344 248.597656 129.023438 248.21875 130.34375 L 239.742188 159.84375 C 239.363281 161.160156 237.984375 161.925781 236.65625 161.546875 Z M 236.65625 161.546875 " fill-opacity="1" fill-rule="nonzero"/><path fill="#004aad" d="M 244.191406 156.136719 C 242.867188 155.761719 242.097656 154.390625 242.476562 153.070312 L 246.945312 137.523438 C 247.320312 136.207031 248.703125 135.445312 250.03125 135.820312 C 251.355469 136.195312 252.125 137.566406 251.746094 138.886719 L 247.28125 154.433594 C 246.898438 155.753906 245.519531 156.515625 244.191406 156.136719 Z M 244.191406 156.136719 " fill-opacity="1" fill-rule="nonzero"/><g clip-path="url(#f45ac15fd1)"><path fill="#004aad" d="M 148.5 164.828125 L 152.714844 163.636719 C 154.15625 163.226562 154.996094 161.734375 154.582031 160.296875 L 142.992188 119.953125 C 142.582031 118.519531 141.074219 117.6875 139.632812 118.097656 L 135.417969 119.292969 C 133.972656 119.699219 133.136719 121.195312 133.546875 122.628906 L 145.140625 162.976562 C 145.554688 164.410156 147.058594 165.242188 148.5 164.828125 Z M 148.5 164.828125 " fill-opacity="1" fill-rule="nonzero"/></g><path fill="#004aad" d="M 138.59375 161.546875 L 140.898438 160.894531 C 142.222656 160.519531 142.992188 159.144531 142.613281 157.828125 L 134.136719 128.328125 C 133.757812 127.011719 132.378906 126.246094 131.050781 126.621094 L 128.746094 127.277344 C 127.417969 127.652344 126.652344 129.023438 127.03125 130.34375 L 135.507812 159.84375 C 135.886719 161.160156 137.265625 161.925781 138.59375 161.546875 Z M 138.59375 161.546875 " fill-opacity="1" fill-rule="nonzero"/><g clip-path="url(#d35718845a)"><path fill="#004aad" d="M 131.058594 156.136719 C 132.382812 155.761719 133.152344 154.390625 132.773438 153.070312 L 128.304688 137.527344 C 127.929688 136.210938 126.546875 135.449219 125.21875 135.824219 C 123.894531 136.199219 123.125 137.570312 123.503906 138.886719 L 127.972656 154.433594 C 128.351562 155.753906 129.730469 156.515625 131.058594 156.136719 Z M 131.058594 156.136719 " fill-opacity="1" fill-rule="nonzero"/></g><path fill="#004aad" d="M 145.980469 136.90625 C 152.734375 135.300781 159.453125 134.066406 166.128906 133.214844 C 163.511719 134.105469 161.628906 136.582031 161.628906 139.484375 L 161.628906 140.164062 C 157.125 140.867188 152.609375 141.757812 148.054688 142.8125 Z M 145.980469 136.90625 " fill-opacity="1" fill-rule="nonzero"/><path fill="#004aad" d="M 232.066406 136.90625 L 230.003906 142.8125 C 223.742188 141.355469 217.53125 140.222656 211.34375 139.433594 C 211.421875 139.230469 211.46875 139.03125 211.523438 138.820312 C 211.585938 138.542969 211.609375 138.277344 211.632812 137.976562 C 211.660156 137.851562 211.671875 137.722656 211.671875 137.597656 L 211.671875 133.1875 C 218.429688 134.03125 225.222656 135.273438 232.066406 136.90625 Z M 232.066406 136.90625 " fill-opacity="1" fill-rule="nonzero"/><path fill="#004aad" d="M 194.839844 150.160156 C 191.527344 151.238281 188.507812 153.140625 186.054688 155.597656 C 184.875 147.265625 178.8125 144.476562 175.339844 143.550781 C 174.179688 143.144531 173.28125 143.101562 172.992188 143.101562 C 172.925781 143.101562 172.890625 143.105469 172.890625 143.105469 L 175.683594 142.855469 C 177.671875 142.539062 179 141.589844 179.886719 140.429688 C 180.050781 140.214844 180.199219 139.992188 180.335938 139.765625 C 180.5 139.488281 180.644531 139.203125 180.773438 138.917969 C 180.777344 138.910156 180.78125 138.90625 180.78125 138.898438 C 180.789062 138.882812 180.792969 138.867188 180.800781 138.851562 C 181.214844 137.898438 181.433594 136.933594 181.542969 136.140625 C 181.691406 135.097656 181.65625 134.355469 181.65625 134.355469 L 168.3125 134.355469 C 165.457031 134.355469 163.144531 136.652344 163.144531 139.488281 L 163.144531 147.082031 C 163.246094 149.398438 163.78125 154.414062 167.066406 159.628906 C 169.984375 164.269531 172.917969 166.734375 175.007812 168.023438 C 175.164062 168.121094 175.316406 168.214844 175.464844 168.296875 C 175.621094 168.386719 175.777344 168.472656 175.921875 168.546875 C 175.953125 168.5625 175.984375 168.582031 176.015625 168.597656 C 176.015625 168.597656 176.023438 168.59375 176.027344 168.59375 L 176.027344 169.605469 L 175.957031 169.566406 C 176.039062 172.402344 176.042969 175.425781 176.03125 177.175781 L 203.960938 177.175781 L 203.960938 165.683594 C 206.398438 163.992188 210.058594 160.527344 210.058594 154.941406 C 210.058594 154.9375 210.027344 153.105469 209.988281 150.683594 C 205.207031 148.777344 199.742188 148.5625 194.839844 150.160156 Z M 194.839844 150.160156 " fill-opacity="1" fill-rule="nonzero"/><g clip-path="url(#ab64a39163)"><path fill="#004aad" d="M 176.023438 178.0625 C 176.023438 178.011719 176.023438 177.960938 176.027344 177.902344 C 176.027344 177.96875 176.023438 178.011719 176.023438 178.0625 C 176.015625 178.910156 176.019531 178.792969 176.023438 178.0625 Z M 176.023438 178.0625 " fill-opacity="1" fill-rule="nonzero"/></g><path fill="#004aad" d="M 206.171875 123.453125 C 203.976562 123.453125 202.195312 125.222656 202.195312 127.402344 L 202.195312 137.605469 C 202.195312 139.785156 203.976562 141.554688 206.171875 141.554688 C 207.792969 141.554688 209.179688 140.589844 209.800781 139.210938 C 209.90625 138.980469 209.988281 138.734375 210.042969 138.480469 C 210.089844 138.289062 210.105469 138.089844 210.121094 137.886719 C 210.128906 137.792969 210.148438 137.699219 210.148438 137.605469 L 210.148438 127.402344 C 210.148438 125.222656 208.371094 123.453125 206.171875 123.453125 Z M 206.171875 123.453125 " fill-opacity="1" fill-rule="nonzero"/><path fill="#004aad" d="M 196.25 144.71875 C 198.917969 144.71875 201.078125 142.570312 201.078125 139.921875 L 201.078125 124.386719 C 201.078125 121.738281 198.917969 119.589844 196.25 119.589844 C 193.585938 119.589844 191.425781 121.738281 191.425781 124.386719 L 191.425781 139.925781 C 191.425781 142.570312 193.585938 144.71875 196.25 144.71875 Z M 196.25 144.71875 " fill-opacity="1" fill-rule="nonzero"/><g clip-path="url(#cac31bd6f0)"><path fill="#004aad" d="M 180.800781 129.671875 L 180.800781 133.46875 L 182.507812 133.46875 L 182.550781 134.316406 C 182.574219 134.816406 182.558594 135.410156 182.480469 136.042969 C 182.300781 137.523438 181.804688 139.242188 180.78125 140.695312 L 180.78125 141.804688 C 180.78125 144.453125 182.941406 146.597656 185.609375 146.597656 C 188.273438 146.597656 190.433594 144.453125 190.433594 141.804688 L 190.433594 122.273438 C 190.433594 119.625 188.273438 117.480469 185.609375 117.480469 C 182.945312 117.480469 180.785156 119.625 180.785156 122.273438 L 180.785156 123.632812 C 180.792969 123.753906 180.800781 123.871094 180.800781 123.992188 Z M 180.800781 129.671875 " fill-opacity="1" fill-rule="nonzero"/></g><path fill="#004aad" d="M 173.90625 133.46875 L 179.910156 133.46875 L 179.910156 123.992188 C 179.910156 123.929688 179.894531 123.871094 179.890625 123.8125 C 179.792969 121.25 177.6875 119.199219 175.085938 119.199219 C 172.417969 119.199219 170.257812 121.34375 170.257812 123.992188 L 170.257812 133.46875 Z M 173.90625 133.46875 " fill-opacity="1" fill-rule="nonzero"/><g fill="#ff1616" fill-opacity="1"><g transform="translate(137.310098, 191.999987)"><g><path d="M 5.921875 -8.5 C 5.960938 -8.5 5.992188 -8.484375 6.015625 -8.453125 C 6.046875 -8.421875 6.0625 -8.390625 6.0625 -8.359375 L 6.0625 -7.15625 C 6.0625 -7.125 6.046875 -7.09375 6.015625 -7.0625 C 5.992188 -7.03125 5.960938 -7.015625 5.921875 -7.015625 L 4.078125 -7.015625 C 4.035156 -7.015625 4.015625 -6.992188 4.015625 -6.953125 L 4.015625 -0.140625 C 4.015625 -0.0976562 4 -0.0625 3.96875 -0.03125 C 3.945312 -0.0078125 3.914062 0 3.875 0 L 2.453125 0 C 2.410156 0 2.375 -0.0078125 2.34375 -0.03125 C 2.320312 -0.0625 2.3125 -0.0976562 2.3125 -0.140625 L 2.3125 -6.953125 C 2.3125 -6.992188 2.289062 -7.015625 2.25 -7.015625 L 0.46875 -7.015625 C 0.425781 -7.015625 0.390625 -7.03125 0.359375 -7.0625 C 0.328125 -7.09375 0.3125 -7.125 0.3125 -7.15625 L 0.3125 -8.359375 C 0.3125 -8.390625 0.328125 -8.421875 0.359375 -8.453125 C 0.390625 -8.484375 0.425781 -8.5 0.46875 -8.5 Z M 5.921875 -8.5 "/></g></g></g><g fill="#ff1616" fill-opacity="1"><g transform="translate(145.068285, 191.999987)"><g><path d="M 4.640625 0 C 4.546875 0 4.488281 -0.0390625 4.46875 -0.125 L 3.234375 -3.46875 C 3.222656 -3.5 3.207031 -3.515625 3.1875 -3.515625 L 2.421875 -3.515625 C 2.378906 -3.515625 2.359375 -3.492188 2.359375 -3.453125 L 2.359375 -0.140625 C 2.359375 -0.0976562 2.34375 -0.0625 2.3125 -0.03125 C 2.28125 -0.0078125 2.242188 0 2.203125 0 L 0.796875 0 C 0.753906 0 0.71875 -0.0078125 0.6875 -0.03125 C 0.65625 -0.0625 0.640625 -0.0976562 0.640625 -0.140625 L 0.640625 -8.359375 C 0.640625 -8.390625 0.65625 -8.421875 0.6875 -8.453125 C 0.71875 -8.484375 0.753906 -8.5 0.796875 -8.5 L 3.75 -8.5 C 4.226562 -8.5 4.648438 -8.390625 5.015625 -8.171875 C 5.390625 -7.960938 5.675781 -7.660156 5.875 -7.265625 C 6.082031 -6.878906 6.1875 -6.4375 6.1875 -5.9375 C 6.1875 -5.414062 6.070312 -4.960938 5.84375 -4.578125 C 5.625 -4.203125 5.304688 -3.921875 4.890625 -3.734375 C 4.847656 -3.722656 4.835938 -3.695312 4.859375 -3.65625 L 6.234375 -0.171875 C 6.242188 -0.148438 6.25 -0.128906 6.25 -0.109375 C 6.25 -0.0351562 6.207031 0 6.125 0 Z M 2.421875 -7.03125 C 2.378906 -7.03125 2.359375 -7.007812 2.359375 -6.96875 L 2.359375 -4.890625 C 2.359375 -4.847656 2.378906 -4.828125 2.421875 -4.828125 L 3.46875 -4.828125 C 3.769531 -4.828125 4.015625 -4.925781 4.203125 -5.125 C 4.390625 -5.320312 4.484375 -5.585938 4.484375 -5.921875 C 4.484375 -6.265625 4.390625 -6.535156 4.203125 -6.734375 C 4.015625 -6.929688 3.769531 -7.03125 3.46875 -7.03125 Z M 2.421875 -7.03125 "/></g></g></g><g fill="#ff1616" fill-opacity="1"><g transform="translate(153.032866, 191.999987)"><g><path d="M 5.140625 0 C 5.046875 0 4.988281 -0.0390625 4.96875 -0.125 L 4.6875 -1.3125 C 4.675781 -1.34375 4.65625 -1.359375 4.625 -1.359375 L 2.359375 -1.359375 C 2.328125 -1.359375 2.304688 -1.34375 2.296875 -1.3125 L 2.015625 -0.125 C 1.992188 -0.0390625 1.941406 0 1.859375 0 L 0.390625 0 C 0.285156 0 0.242188 -0.0507812 0.265625 -0.15625 L 2.453125 -8.375 C 2.472656 -8.457031 2.53125 -8.5 2.625 -8.5 L 4.375 -8.5 C 4.46875 -8.5 4.523438 -8.457031 4.546875 -8.375 L 6.734375 -0.15625 L 6.75 -0.109375 C 6.75 -0.0351562 6.703125 0 6.609375 0 Z M 2.625 -2.75 C 2.613281 -2.726562 2.613281 -2.710938 2.625 -2.703125 C 2.644531 -2.691406 2.664062 -2.6875 2.6875 -2.6875 L 4.28125 -2.6875 C 4.300781 -2.6875 4.316406 -2.691406 4.328125 -2.703125 C 4.347656 -2.710938 4.351562 -2.726562 4.34375 -2.75 L 3.515625 -6.28125 C 3.503906 -6.3125 3.488281 -6.328125 3.46875 -6.328125 C 3.457031 -6.328125 3.445312 -6.3125 3.4375 -6.28125 Z M 2.625 -2.75 "/></g></g></g><g fill="#ff1616" fill-opacity="1"><g transform="translate(161.410223, 191.999987)"><g><path d="M 0.796875 0 C 0.753906 0 0.71875 -0.0078125 0.6875 -0.03125 C 0.65625 -0.0625 0.640625 -0.0976562 0.640625 -0.140625 L 0.640625 -8.359375 C 0.640625 -8.390625 0.65625 -8.421875 0.6875 -8.453125 C 0.71875 -8.484375 0.753906 -8.5 0.796875 -8.5 L 2.203125 -8.5 C 2.242188 -8.5 2.28125 -8.484375 2.3125 -8.453125 C 2.34375 -8.421875 2.359375 -8.390625 2.359375 -8.359375 L 2.359375 -0.140625 C 2.359375 -0.0976562 2.34375 -0.0625 2.3125 -0.03125 C 2.28125 -0.0078125 2.242188 0 2.203125 0 Z M 0.796875 0 "/></g></g></g><g fill="#ff1616" fill-opacity="1"><g transform="translate(165.769046, 191.999987)"><g><path d="M 4.8125 -8.359375 C 4.8125 -8.390625 4.828125 -8.421875 4.859375 -8.453125 C 4.890625 -8.484375 4.925781 -8.5 4.96875 -8.5 L 6.375 -8.5 C 6.414062 -8.5 6.445312 -8.484375 6.46875 -8.453125 C 6.5 -8.421875 6.515625 -8.390625 6.515625 -8.359375 L 6.515625 -0.140625 C 6.515625 -0.0976562 6.5 -0.0625 6.46875 -0.03125 C 6.445312 -0.0078125 6.414062 0 6.375 0 L 4.890625 0 C 4.804688 0 4.75 -0.0351562 4.71875 -0.109375 L 2.40625 -5.046875 C 2.382812 -5.078125 2.363281 -5.09375 2.34375 -5.09375 C 2.332031 -5.09375 2.328125 -5.070312 2.328125 -5.03125 L 2.34375 -0.140625 C 2.34375 -0.0976562 2.328125 -0.0625 2.296875 -0.03125 C 2.273438 -0.0078125 2.242188 0 2.203125 0 L 0.796875 0 C 0.753906 0 0.71875 -0.0078125 0.6875 -0.03125 C 0.65625 -0.0625 0.640625 -0.0976562 0.640625 -0.140625 L 0.640625 -8.359375 C 0.640625 -8.390625 0.65625 -8.421875 0.6875 -8.453125 C 0.71875 -8.484375 0.753906 -8.5 0.796875 -8.5 L 2.265625 -8.5 C 2.335938 -8.5 2.390625 -8.460938 2.421875 -8.390625 L 4.75 -3.453125 C 4.757812 -3.421875 4.769531 -3.40625 4.78125 -3.40625 C 4.800781 -3.40625 4.8125 -3.421875 4.8125 -3.453125 Z M 4.8125 -8.359375 "/></g></g></g><g fill="#ff1616" fill-opacity="1"><g transform="translate(174.304229, 191.999987)"><g><path d="M 0.796875 0 C 0.753906 0 0.71875 -0.0078125 0.6875 -0.03125 C 0.65625 -0.0625 0.640625 -0.0976562 0.640625 -0.140625 L 0.640625 -8.359375 C 0.640625 -8.390625 0.65625 -8.421875 0.6875 -8.453125 C 0.71875 -8.484375 0.753906 -8.5 0.796875 -8.5 L 2.203125 -8.5 C 2.242188 -8.5 2.28125 -8.484375 2.3125 -8.453125 C 2.34375 -8.421875 2.359375 -8.390625 2.359375 -8.359375 L 2.359375 -0.140625 C 2.359375 -0.0976562 2.34375 -0.0625 2.3125 -0.03125 C 2.28125 -0.0078125 2.242188 0 2.203125 0 Z M 0.796875 0 "/></g></g></g><g fill="#ff1616" fill-opacity="1"><g transform="translate(178.663052, 191.999987)"><g><path d="M 4.8125 -8.359375 C 4.8125 -8.390625 4.828125 -8.421875 4.859375 -8.453125 C 4.890625 -8.484375 4.925781 -8.5 4.96875 -8.5 L 6.375 -8.5 C 6.414062 -8.5 6.445312 -8.484375 6.46875 -8.453125 C 6.5 -8.421875 6.515625 -8.390625 6.515625 -8.359375 L 6.515625 -0.140625 C 6.515625 -0.0976562 6.5 -0.0625 6.46875 -0.03125 C 6.445312 -0.0078125 6.414062 0 6.375 0 L 4.890625 0 C 4.804688 0 4.75 -0.0351562 4.71875 -0.109375 L 2.40625 -5.046875 C 2.382812 -5.078125 2.363281 -5.09375 2.34375 -5.09375 C 2.332031 -5.09375 2.328125 -5.070312 2.328125 -5.03125 L 2.34375 -0.140625 C 2.34375 -0.0976562 2.328125 -0.0625 2.296875 -0.03125 C 2.273438 -0.0078125 2.242188 0 2.203125 0 L 0.796875 0 C 0.753906 0 0.71875 -0.0078125 0.6875 -0.03125 C 0.65625 -0.0625 0.640625 -0.0976562 0.640625 -0.140625 L 0.640625 -8.359375 C 0.640625 -8.390625 0.65625 -8.421875 0.6875 -8.453125 C 0.71875 -8.484375 0.753906 -8.5 0.796875 -8.5 L 2.265625 -8.5 C 2.335938 -8.5 2.390625 -8.460938 2.421875 -8.390625 L 4.75 -3.453125 C 4.757812 -3.421875 4.769531 -3.40625 4.78125 -3.40625 C 4.800781 -3.40625 4.8125 -3.421875 4.8125 -3.453125 Z M 4.8125 -8.359375 "/></g></g></g><g fill="#ff1616" fill-opacity="1"><g transform="translate(187.198232, 191.999987)"><g><path d="M 3.28125 0.09375 C 2.726562 0.09375 2.238281 -0.015625 1.8125 -0.234375 C 1.394531 -0.453125 1.070312 -0.757812 0.84375 -1.15625 C 0.613281 -1.5625 0.5 -2.023438 0.5 -2.546875 L 0.5 -5.96875 C 0.5 -6.488281 0.613281 -6.945312 0.84375 -7.34375 C 1.070312 -7.738281 1.394531 -8.046875 1.8125 -8.265625 C 2.238281 -8.484375 2.726562 -8.59375 3.28125 -8.59375 C 3.820312 -8.59375 4.300781 -8.484375 4.71875 -8.265625 C 5.144531 -8.054688 5.472656 -7.757812 5.703125 -7.375 C 5.941406 -6.988281 6.0625 -6.550781 6.0625 -6.0625 L 6.0625 -5.796875 C 6.0625 -5.765625 6.046875 -5.734375 6.015625 -5.703125 C 5.984375 -5.671875 5.945312 -5.65625 5.90625 -5.65625 L 4.484375 -5.65625 C 4.453125 -5.65625 4.421875 -5.671875 4.390625 -5.703125 C 4.359375 -5.734375 4.34375 -5.765625 4.34375 -5.796875 L 4.34375 -6.0625 C 4.34375 -6.363281 4.242188 -6.613281 4.046875 -6.8125 C 3.859375 -7.019531 3.601562 -7.125 3.28125 -7.125 C 2.957031 -7.125 2.695312 -7.019531 2.5 -6.8125 C 2.300781 -6.601562 2.203125 -6.328125 2.203125 -5.984375 L 2.203125 -2.515625 C 2.203125 -2.171875 2.300781 -1.894531 2.5 -1.6875 C 2.707031 -1.476562 2.976562 -1.375 3.3125 -1.375 C 3.625 -1.375 3.875 -1.46875 4.0625 -1.65625 C 4.257812 -1.84375 4.359375 -2.097656 4.359375 -2.421875 L 4.359375 -3.171875 C 4.359375 -3.210938 4.335938 -3.234375 4.296875 -3.234375 L 3.34375 -3.234375 C 3.3125 -3.234375 3.28125 -3.242188 3.25 -3.265625 C 3.21875 -3.296875 3.203125 -3.332031 3.203125 -3.375 L 3.203125 -4.484375 C 3.203125 -4.523438 3.21875 -4.554688 3.25 -4.578125 C 3.28125 -4.609375 3.3125 -4.625 3.34375 -4.625 L 5.90625 -4.625 C 5.945312 -4.625 5.984375 -4.609375 6.015625 -4.578125 C 6.046875 -4.554688 6.0625 -4.523438 6.0625 -4.484375 L 6.0625 -2.546875 C 6.0625 -1.734375 5.804688 -1.085938 5.296875 -0.609375 C 4.796875 -0.140625 4.125 0.09375 3.28125 0.09375 Z M 3.28125 0.09375 "/></g></g></g><g fill="#ff1616" fill-opacity="1"><g transform="translate(198.926755, 191.999987)"><g><path d="M 6.171875 -2.359375 C 6.171875 -1.585938 5.921875 -1 5.421875 -0.59375 C 4.929688 -0.195312 4.296875 0 3.515625 0 L 0.796875 0 C 0.753906 0 0.71875 -0.0078125 0.6875 -0.03125 C 0.65625 -0.0625 0.640625 -0.0976562 0.640625 -0.140625 L 0.640625 -8.359375 C 0.640625 -8.390625 0.65625 -8.421875 0.6875 -8.453125 C 0.71875 -8.484375 0.753906 -8.5 0.796875 -8.5 L 3.328125 -8.5 C 4.191406 -8.5 4.863281 -8.304688 5.34375 -7.921875 C 5.820312 -7.535156 6.0625 -6.953125 6.0625 -6.171875 C 6.0625 -5.367188 5.75 -4.789062 5.125 -4.4375 C 5.082031 -4.40625 5.078125 -4.378906 5.109375 -4.359375 C 5.816406 -3.953125 6.171875 -3.285156 6.171875 -2.359375 Z M 2.421875 -7.03125 C 2.378906 -7.03125 2.359375 -7.007812 2.359375 -6.96875 L 2.359375 -5.0625 C 2.359375 -5.019531 2.378906 -5 2.421875 -5 L 3.34375 -5 C 3.664062 -5 3.914062 -5.085938 4.09375 -5.265625 C 4.28125 -5.441406 4.375 -5.691406 4.375 -6.015625 C 4.375 -6.335938 4.285156 -6.585938 4.109375 -6.765625 C 3.929688 -6.941406 3.675781 -7.03125 3.34375 -7.03125 Z M 3.4375 -1.484375 C 3.757812 -1.484375 4.007812 -1.578125 4.1875 -1.765625 C 4.375 -1.953125 4.46875 -2.222656 4.46875 -2.578125 C 4.46875 -2.921875 4.375 -3.191406 4.1875 -3.390625 C 4.007812 -3.585938 3.757812 -3.6875 3.4375 -3.6875 L 2.421875 -3.6875 C 2.378906 -3.6875 2.359375 -3.664062 2.359375 -3.625 L 2.359375 -1.546875 C 2.359375 -1.503906 2.378906 -1.484375 2.421875 -1.484375 Z M 3.4375 -1.484375 "/></g></g></g><g fill="#ff1616" fill-opacity="1"><g transform="translate(206.915612, 191.999987)"><g><path d="M 3.359375 0.09375 C 2.804688 0.09375 2.320312 -0.015625 1.90625 -0.234375 C 1.488281 -0.460938 1.160156 -0.78125 0.921875 -1.1875 C 0.691406 -1.601562 0.578125 -2.078125 0.578125 -2.609375 L 0.578125 -8.359375 C 0.578125 -8.390625 0.59375 -8.421875 0.625 -8.453125 C 0.65625 -8.484375 0.691406 -8.5 0.734375 -8.5 L 2.15625 -8.5 C 2.1875 -8.5 2.21875 -8.484375 2.25 -8.453125 C 2.28125 -8.421875 2.296875 -8.390625 2.296875 -8.359375 L 2.296875 -2.53125 C 2.296875 -2.175781 2.390625 -1.894531 2.578125 -1.6875 C 2.773438 -1.476562 3.035156 -1.375 3.359375 -1.375 C 3.679688 -1.375 3.941406 -1.476562 4.140625 -1.6875 C 4.335938 -1.894531 4.4375 -2.175781 4.4375 -2.53125 L 4.4375 -8.359375 C 4.4375 -8.390625 4.445312 -8.421875 4.46875 -8.453125 C 4.5 -8.484375 4.535156 -8.5 4.578125 -8.5 L 6 -8.5 C 6.039062 -8.5 6.070312 -8.484375 6.09375 -8.453125 C 6.125 -8.421875 6.140625 -8.390625 6.140625 -8.359375 L 6.140625 -2.609375 C 6.140625 -2.078125 6.023438 -1.601562 5.796875 -1.1875 C 5.566406 -0.78125 5.238281 -0.460938 4.8125 -0.234375 C 4.394531 -0.015625 3.910156 0.09375 3.359375 0.09375 Z M 3.359375 0.09375 "/></g></g></g><g fill="#ff1616" fill-opacity="1"><g transform="translate(215.013736, 191.999987)"><g><path d="M 0.796875 0 C 0.753906 0 0.71875 -0.0078125 0.6875 -0.03125 C 0.65625 -0.0625 0.640625 -0.0976562 0.640625 -0.140625 L 0.640625 -8.359375 C 0.640625 -8.390625 0.65625 -8.421875 0.6875 -8.453125 C 0.71875 -8.484375 0.753906 -8.5 0.796875 -8.5 L 3.40625 -8.5 C 3.945312 -8.5 4.425781 -8.394531 4.84375 -8.1875 C 5.257812 -7.988281 5.578125 -7.703125 5.796875 -7.328125 C 6.023438 -6.960938 6.140625 -6.53125 6.140625 -6.03125 L 6.140625 -2.46875 C 6.140625 -1.96875 6.023438 -1.53125 5.796875 -1.15625 C 5.578125 -0.789062 5.257812 -0.503906 4.84375 -0.296875 C 4.425781 -0.0976562 3.945312 0 3.40625 0 Z M 2.359375 -1.53125 C 2.359375 -1.488281 2.378906 -1.46875 2.421875 -1.46875 L 3.40625 -1.484375 C 3.707031 -1.484375 3.953125 -1.585938 4.140625 -1.796875 C 4.328125 -2.015625 4.425781 -2.300781 4.4375 -2.65625 L 4.4375 -5.84375 C 4.4375 -6.207031 4.34375 -6.492188 4.15625 -6.703125 C 3.96875 -6.921875 3.71875 -7.03125 3.40625 -7.03125 L 2.421875 -7.03125 C 2.378906 -7.03125 2.359375 -7.007812 2.359375 -6.96875 Z M 2.359375 -1.53125 "/></g></g></g><g fill="#ff1616" fill-opacity="1"><g transform="translate(223.026878, 191.999987)"><g><path d="M 0.796875 0 C 0.753906 0 0.71875 -0.0078125 0.6875 -0.03125 C 0.65625 -0.0625 0.640625 -0.0976562 0.640625 -0.140625 L 0.640625 -8.359375 C 0.640625 -8.390625 0.65625 -8.421875 0.6875 -8.453125 C 0.71875 -8.484375 0.753906 -8.5 0.796875 -8.5 L 3.40625 -8.5 C 3.945312 -8.5 4.425781 -8.394531 4.84375 -8.1875 C 5.257812 -7.988281 5.578125 -7.703125 5.796875 -7.328125 C 6.023438 -6.960938 6.140625 -6.53125 6.140625 -6.03125 L 6.140625 -2.46875 C 6.140625 -1.96875 6.023438 -1.53125 5.796875 -1.15625 C 5.578125 -0.789062 5.257812 -0.503906 4.84375 -0.296875 C 4.425781 -0.0976562 3.945312 0 3.40625 0 Z M 2.359375 -1.53125 C 2.359375 -1.488281 2.378906 -1.46875 2.421875 -1.46875 L 3.40625 -1.484375 C 3.707031 -1.484375 3.953125 -1.585938 4.140625 -1.796875 C 4.328125 -2.015625 4.425781 -2.300781 4.4375 -2.65625 L 4.4375 -5.84375 C 4.4375 -6.207031 4.34375 -6.492188 4.15625 -6.703125 C 3.96875 -6.921875 3.71875 -7.03125 3.40625 -7.03125 L 2.421875 -7.03125 C 2.378906 -7.03125 2.359375 -7.007812 2.359375 -6.96875 Z M 2.359375 -1.53125 "/></g></g></g><g fill="#ff1616" fill-opacity="1"><g transform="translate(231.040019, 191.999987)"><g><path d="M 2.59375 -0.015625 C 2.550781 -0.015625 2.515625 -0.0234375 2.484375 -0.046875 C 2.460938 -0.078125 2.453125 -0.113281 2.453125 -0.15625 L 2.453125 -3.265625 L 2.4375 -3.34375 L 0.34375 -8.328125 C 0.332031 -8.347656 0.328125 -8.375 0.328125 -8.40625 C 0.328125 -8.46875 0.367188 -8.5 0.453125 -8.5 L 1.984375 -8.5 C 2.066406 -8.5 2.125 -8.457031 2.15625 -8.375 L 3.28125 -5.3125 C 3.289062 -5.28125 3.300781 -5.265625 3.3125 -5.265625 C 3.332031 -5.265625 3.34375 -5.28125 3.34375 -5.3125 L 4.484375 -8.375 C 4.503906 -8.457031 4.5625 -8.5 4.65625 -8.5 L 6.171875 -8.5 C 6.234375 -8.5 6.269531 -8.484375 6.28125 -8.453125 C 6.300781 -8.421875 6.300781 -8.378906 6.28125 -8.328125 L 4.171875 -3.34375 L 4.171875 -0.15625 C 4.171875 -0.113281 4.15625 -0.078125 4.125 -0.046875 C 4.09375 -0.0234375 4.054688 -0.015625 4.015625 -0.015625 Z M 2.59375 -0.015625 "/></g></g></g></svg>